<?xml version="1.0" standalone="no"?>
<svg viewBox="0 0 200 200" xmlns="http://www.w3.org/2000/svg">
  <path fill="#3D9970" d="M41.4,-73.2C54.6,-64.1,66.8,-54.9,75.3,-42.6C83.8,-30.4,88.7,-15.2,86.9,-1C85.2,13.2,76.8,26.3,67.5,37.3C58.2,48.3,48.1,57,36.7,65.4C25.3,73.8,12.7,81.8,-0.6,82.9C-13.9,84,-27.9,78.2,-41.1,70.9C-54.3,63.6,-66.9,54.7,-76.4,42.6C-86,30.6,-92.6,15.3,-90.7,1.1C-88.9,-13.1,-78.5,-26.2,-69.7,-39.6C-60.9,-53,-53.7,-66.7,-42.3,-76.8C-31,-86.9,-15.5,-93.3,-0.7,-92.1C14.1,-91,28.3,-82.2,41.4,-73.2Z" transform="translate(100 100)" />
</svg>
