<svg id="svg" version="1.1" xmlns="http://www.w3.org/2000/svg" xmlns:xlink="http://www.w3.org/1999/xlink" width="400" height="398.49340866290015" viewBox="0, 0, 400,398.49340866290015"><g id="svgg"><path id="path0" d="M0.000 199.247 C 0.000 331.827,0.126 398.493,0.377 398.493 C 0.626 398.493,0.753 380.051,0.753 343.918 L 0.753 289.343 4.426 286.964 C 47.664 258.950,105.078 265.103,141.645 301.670 C 166.074 326.099,177.850 361.505,172.721 395.104 C 172.453 396.864,172.266 398.348,172.307 398.400 C 172.348 398.452,206.476 398.452,248.148 398.400 L 323.914 398.305 321.245 395.104 C 304.746 375.313,298.971 345.726,307.138 322.823 C 307.912 320.651,307.860 320.636,304.841 322.151 C 266.766 341.256,221.312 312.601,221.312 269.492 C 221.312 215.717,287.649 190.675,323.407 230.952 C 334.748 243.726,340.407 264.144,337.038 280.132 C 336.722 281.634,336.508 282.863,336.563 282.863 C 336.618 282.863,338.075 281.986,339.801 280.914 C 357.155 270.136,379.212 266.722,398.965 271.758 L 400.002 272.022 399.907 202.451 L 399.812 132.880 396.422 132.012 C 341.162 117.854,319.039 48.528,356.174 5.885 C 357.595 4.254,359.322 2.262,360.012 1.459 L 361.268 0.000 249.016 0.000 L 136.763 0.000 139.331 4.049 C 172.293 56.016,149.548 124.837,92.170 146.745 C 62.981 157.890,28.071 153.713,3.107 136.087 L 0.753 134.425 0.753 67.213 C 0.753 22.655,0.626 0.000,0.377 0.000 C 0.126 0.000,0.000 66.667,0.000 199.247 M247.691 69.880 C 279.616 75.390,297.011 110.078,282.215 138.727 C 267.518 167.182,228.882 173.187,206.344 150.518 C 178.472 122.482,194.423 75.609,233.898 69.550 C 236.438 69.160,244.659 69.357,247.691 69.880 M373.716 182.292 C 390.657 187.524,390.657 211.722,373.716 216.955 C 360.483 221.042,347.387 208.639,350.859 195.308 C 353.484 185.231,363.946 179.274,373.716 182.292 M59.322 185.655 C 99.112 196.253,91.607 255.480,50.471 255.506 C 6.650 255.533,1.988 193.016,45.198 184.794 C 47.604 184.336,56.379 184.871,59.322 185.655 " stroke="none" fill="#fbfbfb" fill-rule="evenodd"></path><path id="path1" d="M0.757 67.137 L 0.761 134.275 4.994 137.044 C 48.341 165.400,106.508 154.347,136.611 112.034 C 159.319 80.116,160.284 36.709,139.011 4.049 L 136.374 0.000 68.564 0.000 L 0.753 0.000 0.757 67.137 M358.534 3.484 C 326.325 39.791,332.860 94.074,372.693 121.106 C 379.749 125.895,395.527 132.580,399.772 132.580 C 399.897 132.580,400.000 102.750,400.000 66.290 L 400.000 0.000 380.812 0.000 L 361.625 0.000 358.534 3.484 M235.079 69.689 C 202.308 73.067,182.894 108.469,197.616 138.003 C 213.785 170.438,259.214 173.301,279.287 143.151 C 301.411 109.917,274.743 65.601,235.079 69.689 M365.348 181.949 C 356.976 183.365,350.659 190.966,350.659 199.623 C 350.659 215.958,370.821 223.733,381.726 211.604 C 393.011 199.053,382.009 179.132,365.348 181.949 M46.328 184.928 C 16.999 188.615,4.558 224.320,25.383 245.037 C 47.691 267.230,85.714 251.394,85.589 219.962 C 85.506 198.971,66.874 182.345,46.328 184.928 M272.316 211.709 C 232.443 216.827,209.586 259.552,227.500 295.480 C 241.618 323.795,275.539 335.585,304.298 322.175 C 308.520 320.206,308.265 320.083,307.122 323.549 C 299.361 347.079,304.967 375.026,321.456 395.009 L 324.331 398.493 362.167 398.493 L 400.002 398.493 399.907 335.311 L 399.812 272.128 395.857 271.306 C 376.404 267.265,355.913 270.964,339.220 281.529 C 337.382 282.692,335.979 283.382,336.101 283.063 C 337.948 278.252,338.156 265.796,336.524 257.777 C 330.530 228.325,302.053 207.892,272.316 211.709 M52.175 270.294 C 34.843 272.177,17.130 278.620,2.919 288.209 L 0.753 289.670 0.753 344.082 L 0.753 398.493 86.380 398.493 L 172.007 398.493 172.457 395.386 C 182.746 324.351,123.336 262.565,52.175 270.294 " stroke="none" fill="#3c9c74" fill-rule="evenodd"></path><path id="path2" d="M206.197 83.333 L 204.708 84.934 206.309 83.445 C 207.798 82.061,208.083 81.733,207.798 81.733 C 207.736 81.733,207.016 82.453,206.197 83.333 M14.777 219.962 C 14.777 220.687,14.854 220.984,14.949 220.621 C 15.044 220.259,15.044 219.666,14.949 219.303 C 14.854 218.941,14.777 219.237,14.777 219.962 M49.812 255.627 C 50.174 255.722,50.767 255.722,51.130 255.627 C 51.492 255.532,51.196 255.455,50.471 255.455 C 49.746 255.455,49.449 255.532,49.812 255.627 " stroke="none" fill="#87c0a6" fill-rule="evenodd"></path><path id="path3" d="M154.538 56.121 C 154.538 57.260,154.609 57.726,154.695 57.156 C 154.782 56.587,154.782 55.654,154.695 55.085 C 154.609 54.515,154.538 54.981,154.538 56.121 M287.470 116.761 C 287.470 117.486,287.547 117.782,287.642 117.420 C 287.737 117.057,287.737 116.464,287.642 116.102 C 287.547 115.739,287.470 116.036,287.470 116.761 M125.980 124.765 L 122.976 127.872 126.083 124.868 C 128.969 122.077,129.362 121.657,129.087 121.657 C 129.031 121.657,127.632 123.056,125.980 124.765 M273.426 150.565 L 272.128 151.977 273.540 150.679 C 274.855 149.471,275.126 149.153,274.838 149.153 C 274.776 149.153,274.140 149.788,273.426 150.565 M238.512 164.493 C 239.289 164.574,240.560 164.574,241.337 164.493 C 242.114 164.412,241.478 164.345,239.925 164.345 C 238.371 164.345,237.735 164.412,238.512 164.493 M278.060 211.197 C 278.837 211.278,280.108 211.278,280.885 211.197 C 281.662 211.116,281.026 211.049,279.473 211.049 C 277.919 211.049,277.283 211.116,278.060 211.197 M25.047 245.198 C 26.067 246.234,26.987 247.081,27.090 247.081 C 27.194 247.081,26.444 246.234,25.424 245.198 C 24.404 244.162,23.484 243.315,23.380 243.315 C 23.277 243.315,24.027 244.162,25.047 245.198 M61.864 269.582 C 63.056 269.656,65.005 269.656,66.196 269.582 C 67.387 269.507,66.412 269.446,64.030 269.446 C 61.648 269.446,60.673 269.507,61.864 269.582 M378.249 269.580 C 379.233 269.658,380.843 269.658,381.827 269.580 C 382.811 269.502,382.006 269.439,380.038 269.439 C 378.070 269.439,377.265 269.502,378.249 269.580 M141.431 301.695 C 143.287 303.559,144.890 305.085,144.994 305.085 C 145.097 305.085,143.664 303.559,141.808 301.695 C 139.952 299.831,138.349 298.305,138.245 298.305 C 138.142 298.305,139.575 299.831,141.431 301.695 M277.684 327.960 C 278.668 328.038,280.278 328.038,281.262 327.960 C 282.246 327.883,281.441 327.819,279.473 327.819 C 277.505 327.819,276.700 327.883,277.684 327.960 M173.766 379.284 C 173.766 381.045,173.831 381.766,173.910 380.885 C 173.990 380.005,173.990 378.564,173.910 377.684 C 173.831 376.803,173.766 377.524,173.766 379.284 " stroke="none" fill="#a4cebc" fill-rule="evenodd"></path><path id="path4" d="" stroke="none" fill="#6cb494" fill-rule="evenodd"></path></g></svg>