<svg id="svg" version="1.1" xmlns="http://www.w3.org/2000/svg" xmlns:xlink="http://www.w3.org/1999/xlink" width="400" height="400" viewBox="0, 0, 400,400"><g id="svgg"><path id="path0" d="M362.933 116.671 C 322.049 158.375,254.506 160.558,210.523 121.596 C 208.581 119.875,206.871 118.522,206.724 118.588 C 206.578 118.654,204.625 119.702,202.385 120.916 C 173.271 136.700,137.199 138.427,106.892 125.488 L 103.813 124.173 100.245 126.494 C 77.483 141.292,47.538 145.073,21.691 136.413 C 14.434 133.981,9.588 131.715,1.804 127.111 L 0.000 126.044 0.000 207.795 L -0.000 289.546 1.045 288.850 C 43.559 260.524,98.045 264.693,137.533 299.293 L 139.264 300.809 141.332 298.086 C 158.686 275.231,189.531 258.766,219.122 256.561 C 221.152 256.409,222.723 256.117,222.795 255.878 C 226.459 243.684,230.475 236.739,238.542 228.655 C 268.920 198.209,320.541 209.663,335.382 250.142 C 336.683 253.690,336.192 253.579,342.209 251.681 C 359.326 246.281,378.299 246.332,395.445 251.823 L 400.000 253.281 400.000 192.752 L 400.000 132.223 398.386 131.814 C 388.252 129.247,375.820 123.031,368.281 116.763 C 367.028 115.721,365.818 114.757,365.592 114.622 C 365.367 114.487,364.171 115.408,362.933 116.671 M46.667 174.467 C 54.080 179.372,50.272 190.501,41.400 189.860 C 33.020 189.253,30.905 177.836,38.462 173.998 C 40.792 172.815,44.491 173.026,46.667 174.467 M194.567 174.005 C 208.306 178.633,209.566 197.418,196.569 203.842 C 188.626 207.768,179.001 204.514,175.092 196.581 C 168.723 183.658,180.995 169.432,194.567 174.005 M375.011 182.331 C 392.097 187.608,392.097 212.012,375.011 217.290 C 361.665 221.412,348.457 208.903,351.959 195.457 C 354.606 185.295,365.157 179.287,375.011 182.331 M68.046 222.430 C 75.187 224.949,78.558 233.321,75.250 240.317 C 70.559 250.235,56.394 250.101,51.700 240.093 C 46.859 229.771,57.196 218.602,68.046 222.430 " stroke="none" fill="#fbfbfb" fill-rule="evenodd"></path><path id="path1" d="M0.000 62.834 L 0.000 125.668 2.564 127.289 C 32.229 146.038,71.997 145.180,101.928 125.146 L 103.761 123.919 107.246 125.411 C 137.460 138.345,173.673 136.426,202.963 120.341 L 207.066 118.088 209.429 120.297 C 251.589 159.717,319.044 158.724,361.085 118.063 L 365.287 113.999 368.066 116.270 C 376.378 123.061,389.681 129.711,398.765 131.615 L 400.000 131.874 400.000 65.937 L 400.000 0.000 200.000 0.000 L 0.000 0.000 0.000 62.834 M39.718 173.694 C 33.963 175.214,32.104 182.947,36.449 187.293 C 42.335 193.178,52.068 187.705,50.125 179.603 C 49.044 175.100,44.393 172.458,39.718 173.694 M186.135 173.748 C 171.109 177.095,169.074 197.741,183.155 203.970 C 194.041 208.785,206.390 199.894,205.389 187.961 C 204.597 178.509,195.363 171.693,186.135 173.748 M366.572 181.985 C 358.128 183.412,351.757 191.078,351.757 199.810 C 351.757 216.284,372.091 224.126,383.089 211.893 C 394.470 199.234,383.375 179.144,366.572 181.985 M272.745 211.999 C 250.061 214.911,231.009 230.745,224.068 252.454 C 223.406 254.525,222.838 256.259,222.805 256.307 C 222.773 256.354,220.200 256.660,217.088 256.987 C 187.539 260.090,159.982 274.945,142.271 297.317 L 139.242 301.142 135.433 297.837 C 98.410 265.719,45.038 261.426,3.989 287.265 L 0.190 289.656 0.094 344.828 L -0.003 400.000 199.999 400.000 L 400.000 400.000 400.000 326.748 L 400.000 253.496 395.537 252.111 C 377.168 246.413,358.634 246.466,340.970 252.266 C 338.478 253.084,336.410 253.711,336.375 253.658 C 336.340 253.605,335.835 252.194,335.252 250.522 C 326.369 225.037,299.617 208.550,272.745 211.999 M59.361 222.562 C 48.443 226.619,47.750 241.638,58.264 246.354 C 67.227 250.374,76.971 243.478,76.265 233.613 C 75.681 225.459,66.942 219.745,59.361 222.562 " stroke="none" fill="#3c9c74" fill-rule="evenodd"></path><path id="path2" d="M362.179 117.094 L 361.064 118.329 362.298 117.213 C 362.977 116.599,363.533 116.044,363.533 115.978 C 363.533 115.685,363.219 115.943,362.179 117.094 " stroke="none" fill="#86bfa5" fill-rule="evenodd"></path><path id="path3" d="M359.714 119.563 L 358.405 120.988 359.829 119.679 C 361.155 118.460,361.428 118.139,361.138 118.139 C 361.075 118.139,360.434 118.780,359.714 119.563 M281.766 149.569 C 283.072 149.643,285.209 149.643,286.515 149.569 C 287.821 149.495,286.752 149.434,284.141 149.434 C 281.529 149.434,280.461 149.495,281.766 149.569 M278.538 211.483 C 279.321 211.565,280.603 211.565,281.387 211.483 C 282.170 211.401,281.529 211.334,279.962 211.334 C 278.395 211.334,277.754 211.401,278.538 211.483 M62.773 221.724 C 63.139 221.820,63.737 221.820,64.103 221.724 C 64.468 221.629,64.169 221.551,63.438 221.551 C 62.707 221.551,62.407 221.629,62.773 221.724 M76.457 234.758 C 76.457 235.698,76.531 236.083,76.621 235.613 C 76.712 235.142,76.712 234.373,76.621 233.903 C 76.531 233.433,76.457 233.818,76.457 234.758 M53.181 242.854 C 53.181 242.919,53.737 243.475,54.416 244.088 L 55.651 245.204 54.535 243.970 C 53.495 242.819,53.181 242.560,53.181 242.854 M60.494 270.366 C 61.695 270.442,63.661 270.442,64.862 270.366 C 66.064 270.291,65.081 270.229,62.678 270.229 C 60.275 270.229,59.292 270.291,60.494 270.366 " stroke="none" fill="#a4cfbc" fill-rule="evenodd"></path><path id="path4" d="" stroke="none" fill="#6cb494" fill-rule="evenodd"></path></g></svg>