<svg id="svg" version="1.1" xmlns="http://www.w3.org/2000/svg" xmlns:xlink="http://www.w3.org/1999/xlink" width="400" height="400" viewBox="0, 0, 400,400"><g id="svgg"><path id="path0" d="M362.622 116.510 C 361.654 117.988,353.452 125.149,348.857 128.529 C 322.435 147.962,291.378 154.323,257.800 147.179 C 242.103 143.839,223.147 133.925,209.802 122.074 L 206.604 119.234 205.002 120.232 C 196.263 125.672,181.389 131.099,169.600 133.151 C 148.254 136.864,127.382 134.672,108.200 126.700 C 104.068 124.983,104.206 124.988,101.908 126.488 C 91.244 133.450,78.904 138.361,67.000 140.378 C 65.460 140.639,63.268 141.031,62.129 141.249 C 60.084 141.639,42.272 141.815,41.682 141.451 C 41.515 141.347,39.859 141.055,38.003 140.800 C 27.145 139.314,14.830 134.861,4.066 128.530 C 2.013 127.322,0.257 126.409,0.165 126.501 C 0.073 126.593,0.044 163.305,0.099 208.083 L 0.200 289.497 5.400 286.318 C 37.388 266.762,78.027 264.501,110.506 280.471 C 112.663 281.532,114.504 282.400,114.596 282.400 C 116.025 282.400,131.136 292.862,136.064 297.263 C 139.743 300.550,139.146 300.523,141.440 297.500 C 156.921 277.095,184.823 260.861,210.600 257.261 C 216.964 256.372,219.821 255.996,220.955 255.899 C 222.053 255.805,222.187 255.574,223.617 251.310 C 241.311 198.573,315.434 198.151,334.769 250.677 L 335.680 253.154 338.388 252.177 C 352.258 247.174,371.223 245.973,385.400 249.201 C 390.814 250.433,392.799 250.970,394.590 251.687 C 395.695 252.129,397.050 252.632,397.600 252.804 C 398.150 252.976,398.915 253.245,399.300 253.401 C 399.965 253.671,400.000 250.661,400.000 193.503 L 400.000 133.321 395.881 132.249 C 388.671 130.373,381.671 127.438,375.400 123.662 C 372.769 122.077,365.404 116.654,365.004 116.006 C 364.562 115.291,363.237 115.571,362.622 116.510 M47.400 174.618 C 54.111 178.934,52.073 189.183,44.292 190.249 C 36.499 191.318,31.561 182.396,36.652 176.447 C 39.403 173.234,44.025 172.447,47.400 174.618 M194.040 174.034 C 211.836 179.712,208.096 205.608,189.473 205.660 C 179.873 205.686,173.400 199.219,173.400 189.600 C 173.400 181.926,176.960 176.905,184.317 174.201 C 186.118 173.540,192.165 173.435,194.040 174.034 M372.918 182.231 C 386.510 185.753,391.223 202.596,381.454 212.731 C 369.842 224.777,350.017 216.422,350.262 199.584 C 350.434 187.713,361.466 179.263,372.918 182.231 M68.944 222.413 C 76.213 225.133,79.634 234.420,75.799 241.023 C 68.985 252.755,51.200 248.111,51.200 234.600 C 51.200 225.423,60.294 219.177,68.944 222.413 " stroke="none" fill="#fbfbfb" fill-rule="evenodd"></path><path id="path1" d="M0.000 62.800 C 0.000 97.340,0.140 125.600,0.312 125.600 C 0.483 125.600,2.283 126.586,4.313 127.791 C 17.091 135.378,30.767 139.693,45.641 140.831 C 64.224 142.253,85.323 136.600,101.278 125.924 C 103.980 124.117,104.129 124.104,107.024 125.428 C 108.260 125.993,110.290 126.790,111.536 127.198 C 112.781 127.606,115.060 128.386,116.600 128.932 C 119.062 129.805,122.977 130.840,128.200 131.998 C 129.080 132.194,130.610 132.450,131.600 132.568 C 132.590 132.687,135.200 133.061,137.400 133.401 C 142.843 134.241,157.157 134.241,162.600 133.401 C 164.800 133.061,167.410 132.687,168.400 132.568 C 172.079 132.129,179.718 130.225,184.600 128.531 C 186.800 127.767,189.329 126.891,190.219 126.583 C 191.110 126.275,193.450 125.235,195.419 124.273 C 197.389 123.310,199.720 122.187,200.600 121.778 C 201.480 121.368,203.000 120.531,203.978 119.917 C 206.484 118.343,206.951 118.462,210.363 121.539 C 213.082 123.990,222.914 131.600,223.363 131.600 C 223.461 131.600,225.039 132.526,226.871 133.657 C 230.375 135.822,239.869 140.506,243.600 141.911 C 248.264 143.667,251.886 144.886,254.000 145.413 C 258.538 146.543,263.503 147.562,266.600 147.999 C 268.360 148.247,270.940 148.627,272.333 148.842 C 273.726 149.058,278.706 149.235,283.400 149.235 C 288.094 149.235,293.074 149.058,294.467 148.842 C 295.860 148.627,298.440 148.247,300.200 147.999 C 301.960 147.751,304.120 147.389,305.000 147.194 C 305.880 146.999,307.590 146.630,308.800 146.374 C 325.460 142.849,344.162 132.730,358.473 119.500 C 364.486 113.941,363.671 114.078,368.400 117.825 C 376.869 124.535,393.841 132.400,399.851 132.400 C 399.933 132.400,400.000 102.610,400.000 66.200 L 400.000 0.000 200.000 0.000 L 0.000 0.000 0.000 62.800 M41.372 174.376 C 32.476 176.504,33.801 189.293,42.923 189.346 C 52.001 189.399,53.797 176.837,45.046 174.497 C 43.012 173.953,43.124 173.956,41.372 174.376 M186.200 174.581 C 168.781 178.102,170.468 203.154,188.253 205.080 C 207.120 207.123,210.991 178.511,192.378 174.595 C 189.188 173.924,189.443 173.925,186.200 174.581 M365.400 182.652 C 351.762 184.705,346.084 202.413,355.901 212.274 C 366.886 223.308,386.108 215.471,385.986 200.008 C 385.927 192.574,381.372 186.261,373.902 183.260 C 372.668 182.764,367.234 182.376,365.400 182.652 M274.400 212.435 C 251.879 213.878,231.243 230.082,224.361 251.728 C 222.733 256.847,222.867 256.697,219.675 256.972 C 208.400 257.943,199.650 259.900,188.200 264.012 C 171.849 269.885,151.586 284.899,141.654 298.500 C 139.578 301.344,139.365 301.343,136.290 298.487 C 129.900 292.552,119.720 285.755,111.000 281.602 C 105.780 279.116,104.163 278.436,98.700 276.428 C 95.805 275.364,84.090 272.565,80.200 272.008 C 78.440 271.756,75.860 271.373,74.467 271.158 C 71.236 270.657,55.525 270.646,52.499 271.142 C 51.234 271.349,48.580 271.740,46.600 272.009 C 42.745 272.534,33.205 274.717,29.349 275.957 C 21.791 278.388,13.420 282.320,5.499 287.160 L -0.000 290.520 -0.000 345.260 L 0.000 400.000 200.000 400.000 L 400.000 400.000 400.000 327.254 L 400.000 254.509 398.100 253.821 C 392.932 251.952,392.085 251.663,390.600 251.262 C 373.965 246.768,354.038 247.390,338.861 252.874 C 335.001 254.269,335.147 254.341,333.777 250.386 C 325.294 225.895,301.517 210.698,274.400 212.435 M60.800 222.748 C 47.231 227.241,50.060 246.844,64.277 246.844 C 77.019 246.844,81.214 230.234,70.116 223.729 C 68.241 222.631,62.865 222.064,60.800 222.748 " stroke="none" fill="#3c9c73" fill-rule="evenodd"></path><path id="path2" d="M362.749 115.864 C 362.246 116.472,362.276 116.481,363.101 115.967 C 363.721 115.582,364.175 115.530,364.552 115.803 C 364.853 116.021,366.878 117.566,369.050 119.235 C 372.811 122.126,374.800 123.444,374.800 123.047 C 374.800 122.947,374.135 122.454,373.322 121.952 C 372.509 121.449,370.164 119.725,368.110 118.119 C 364.158 115.030,363.624 114.806,362.749 115.864 M360.400 118.275 C 357.485 121.207,352.721 125.243,348.438 128.407 C 345.997 130.211,344.000 131.772,344.000 131.877 C 344.000 132.073,346.237 130.497,350.800 127.086 C 353.216 125.280,362.400 117.245,362.400 116.937 C 362.400 116.520,361.638 117.029,360.400 118.275 M209.200 121.512 C 210.630 122.832,211.865 123.852,211.945 123.778 C 212.137 123.599,207.641 119.442,207.055 119.256 C 206.805 119.176,207.770 120.192,209.200 121.512 M201.903 121.498 C 200.420 122.291,199.277 123.011,199.364 123.097 C 199.557 123.291,203.107 121.491,204.200 120.645 C 205.404 119.713,204.876 119.909,201.903 121.498 M375.800 123.811 C 376.240 124.169,377.140 124.726,377.800 125.050 C 378.922 125.601,378.948 125.597,378.200 124.989 C 377.760 124.631,376.860 124.074,376.200 123.750 C 375.078 123.199,375.052 123.203,375.800 123.811 M212.769 124.563 C 214.088 126.152,226.800 134.935,226.800 134.257 C 226.800 134.137,225.713 133.401,224.384 132.622 C 223.055 131.844,219.774 129.562,217.093 127.552 C 214.411 125.542,212.466 124.197,212.769 124.563 M103.200 125.163 C 103.200 125.362,103.538 125.437,103.950 125.329 C 104.363 125.221,105.398 125.485,106.250 125.915 C 107.103 126.345,108.250 126.816,108.800 126.960 C 109.350 127.105,108.651 126.678,107.246 126.011 C 104.684 124.797,103.200 124.485,103.200 125.163 M192.600 126.044 C 191.280 126.691,190.650 127.102,191.200 126.958 C 192.354 126.657,195.999 124.829,195.400 124.853 C 195.180 124.862,193.920 125.398,192.600 126.044 M1.000 126.730 C 4.266 128.710,6.000 129.655,6.000 129.456 C 6.000 129.184,0.588 125.999,0.130 126.001 C -0.051 126.002,0.340 126.330,1.000 126.730 M382.940 127.646 C 384.227 128.310,385.364 128.770,385.466 128.668 C 385.649 128.484,381.336 126.382,380.852 126.419 C 380.713 126.430,381.653 126.982,382.940 127.646 M98.442 128.199 C 97.695 128.727,95.582 129.920,93.746 130.850 C 91.911 131.781,90.479 132.613,90.565 132.698 C 90.857 132.990,100.400 127.805,100.400 127.354 C 100.400 127.002,99.721 127.295,98.442 128.199 M187.400 128.029 C 186.520 128.452,186.250 128.686,186.800 128.550 C 188.305 128.175,190.284 127.266,189.600 127.262 C 189.270 127.261,188.280 127.606,187.400 128.029 M114.800 129.200 C 115.130 129.413,115.670 129.588,116.000 129.588 C 116.533 129.588,116.533 129.545,116.000 129.200 C 115.670 128.987,115.130 128.812,114.800 128.812 C 114.267 128.812,114.267 128.855,114.800 129.200 M184.000 129.200 C 183.467 129.545,183.467 129.588,184.000 129.588 C 184.330 129.588,184.870 129.413,185.200 129.200 C 185.733 128.855,185.733 128.812,185.200 128.812 C 184.870 128.812,184.330 128.987,184.000 129.200 M6.400 129.779 C 6.400 129.889,6.940 130.259,7.600 130.600 C 8.260 130.941,8.800 131.131,8.800 131.021 C 8.800 130.911,8.260 130.541,7.600 130.200 C 6.940 129.859,6.400 129.669,6.400 129.779 M119.400 130.800 C 119.840 130.989,120.560 131.144,121.000 131.144 L 121.800 131.144 121.000 130.800 C 120.560 130.611,119.840 130.456,119.400 130.456 L 118.600 130.456 119.400 130.800 M179.000 130.800 L 178.200 131.144 179.000 131.144 C 179.440 131.144,180.160 130.989,180.600 130.800 L 181.400 130.456 180.600 130.456 C 180.160 130.456,179.440 130.611,179.000 130.800 M390.800 130.800 C 391.130 131.013,391.670 131.188,392.000 131.188 C 392.533 131.188,392.533 131.145,392.000 130.800 C 391.670 130.587,391.130 130.412,390.800 130.412 C 390.267 130.412,390.267 130.455,390.800 130.800 M12.141 132.846 C 13.869 133.729,15.368 134.366,15.472 134.262 C 15.661 134.072,9.764 131.182,9.264 131.220 C 9.119 131.231,10.414 131.962,12.141 132.846 M123.000 131.600 C 123.440 131.789,124.160 131.944,124.600 131.944 L 125.400 131.944 124.600 131.600 C 124.160 131.411,123.440 131.256,123.000 131.256 L 122.200 131.256 123.000 131.600 M175.400 131.600 L 174.600 131.944 175.400 131.944 C 175.840 131.944,176.560 131.789,177.000 131.600 L 177.800 131.256 177.000 131.256 C 176.560 131.256,175.840 131.411,175.400 131.600 M393.400 131.600 C 393.840 131.789,394.470 131.944,394.800 131.944 C 395.178 131.944,395.104 131.817,394.600 131.600 C 394.160 131.411,393.530 131.256,393.200 131.256 C 392.822 131.256,392.896 131.383,393.400 131.600 M126.400 132.400 C 127.768 132.838,128.819 132.838,127.800 132.400 C 127.360 132.211,126.640 132.062,126.200 132.068 C 125.557 132.077,125.596 132.143,126.400 132.400 M172.200 132.400 C 171.181 132.838,172.232 132.838,173.600 132.400 C 174.404 132.143,174.443 132.077,173.800 132.068 C 173.360 132.062,172.640 132.211,172.200 132.400 M338.847 134.628 C 334.736 137.147,333.265 138.184,335.200 137.199 C 336.920 136.324,343.600 132.309,343.600 132.151 C 343.600 131.792,342.763 132.228,338.847 134.628 M396.400 132.400 C 397.768 132.838,398.819 132.838,397.800 132.400 C 397.360 132.211,396.640 132.062,396.200 132.068 C 395.557 132.077,395.596 132.143,396.400 132.400 M130.600 133.200 C 131.260 133.368,132.250 133.509,132.800 133.513 L 133.800 133.520 132.800 133.200 C 132.250 133.024,131.260 132.883,130.600 132.887 L 129.400 132.895 130.600 133.200 M167.200 133.200 L 166.200 133.520 167.200 133.513 C 167.750 133.509,168.740 133.368,169.400 133.200 L 170.600 132.895 169.400 132.887 C 168.740 132.883,167.750 133.024,167.200 133.200 M135.800 134.000 C 136.460 134.168,137.540 134.305,138.200 134.305 L 139.400 134.305 138.200 134.000 C 137.540 133.832,136.460 133.695,135.800 133.695 L 134.600 133.695 135.800 134.000 M161.800 134.000 L 160.600 134.305 161.800 134.305 C 162.460 134.305,163.540 134.168,164.200 134.000 L 165.400 133.695 164.200 133.695 C 163.540 133.695,162.460 133.832,161.800 134.000 M146.100 134.896 C 148.252 135.084,151.748 135.084,153.900 134.896 C 157.443 134.586,157.086 134.555,150.000 134.555 C 142.914 134.555,142.557 134.586,146.100 134.896 M227.800 135.011 C 228.240 135.369,229.140 135.926,229.800 136.250 C 230.922 136.801,230.948 136.797,230.200 136.189 C 229.760 135.831,228.860 135.274,228.200 134.950 C 227.078 134.399,227.052 134.403,227.800 135.011 M19.000 135.783 C 21.010 136.651,22.308 136.850,20.600 136.029 C 19.720 135.606,18.730 135.261,18.400 135.262 C 18.070 135.264,18.340 135.498,19.000 135.783 M83.200 135.600 C 82.667 135.945,82.667 135.988,83.200 135.988 C 83.530 135.988,84.070 135.813,84.400 135.600 C 84.933 135.255,84.933 135.212,84.400 135.212 C 84.070 135.212,83.530 135.387,83.200 135.600 M22.800 137.200 C 23.130 137.413,23.670 137.588,24.000 137.588 C 24.533 137.588,24.533 137.545,24.000 137.200 C 23.670 136.987,23.130 136.812,22.800 136.812 C 22.267 136.812,22.267 136.855,22.800 137.200 M25.400 138.000 C 25.840 138.189,26.470 138.344,26.800 138.344 C 27.178 138.344,27.104 138.217,26.600 138.000 C 26.160 137.811,25.530 137.656,25.200 137.656 C 24.822 137.656,24.896 137.783,25.400 138.000 M76.000 138.000 C 75.205 138.514,76.204 138.514,77.400 138.000 L 78.200 137.656 77.400 137.634 C 76.960 137.622,76.330 137.787,76.000 138.000 M330.484 139.082 C 328.880 139.862,327.646 140.579,327.743 140.676 C 327.839 140.772,329.331 140.129,331.059 139.246 C 334.935 137.264,334.484 137.136,330.484 139.082 M28.400 138.800 C 29.768 139.238,30.819 139.238,29.800 138.800 C 29.360 138.611,28.640 138.462,28.200 138.468 C 27.557 138.477,27.596 138.543,28.400 138.800 M72.800 138.800 C 72.005 139.314,73.004 139.314,74.200 138.800 L 75.000 138.456 74.200 138.434 C 73.760 138.422,73.130 138.587,72.800 138.800 M237.341 140.046 C 239.069 140.929,240.561 141.573,240.656 141.477 C 240.834 141.299,234.925 138.384,234.458 138.420 C 234.316 138.431,235.614 139.162,237.341 140.046 M31.600 139.600 C 32.968 140.038,34.019 140.038,33.000 139.600 C 32.560 139.411,31.840 139.262,31.400 139.268 C 30.757 139.277,30.796 139.343,31.600 139.600 M69.800 139.600 C 69.296 139.817,69.222 139.944,69.600 139.944 C 69.930 139.944,70.560 139.789,71.000 139.600 C 71.504 139.383,71.578 139.256,71.200 139.256 C 70.870 139.256,70.240 139.411,69.800 139.600 M35.400 140.400 C 36.060 140.568,37.050 140.709,37.600 140.713 L 38.600 140.720 37.600 140.400 C 37.050 140.224,36.060 140.083,35.400 140.087 L 34.200 140.095 35.400 140.400 M65.000 140.400 L 63.800 140.705 65.000 140.713 C 65.660 140.717,66.650 140.576,67.200 140.400 L 68.200 140.080 67.200 140.087 C 66.650 140.091,65.660 140.232,65.000 140.400 M40.600 141.191 C 41.800 141.505,46.681 141.729,46.367 141.455 C 46.275 141.375,44.670 141.213,42.800 141.094 C 40.844 140.969,39.910 141.010,40.600 141.191 M58.600 141.200 L 56.200 141.466 58.600 141.493 C 59.920 141.508,61.450 141.376,62.000 141.200 L 63.000 140.880 62.000 140.907 C 61.450 140.922,59.920 141.054,58.600 141.200 M243.600 142.800 C 243.930 143.013,244.470 143.188,244.800 143.188 C 245.333 143.188,245.333 143.145,244.800 142.800 C 244.470 142.587,243.930 142.412,243.600 142.412 C 243.067 142.412,243.067 142.455,243.600 142.800 M319.600 143.600 C 319.067 143.945,319.067 143.988,319.600 143.988 C 319.930 143.988,320.470 143.813,320.800 143.600 C 321.333 143.255,321.333 143.212,320.800 143.212 C 320.470 143.212,319.930 143.387,319.600 143.600 M250.400 145.200 C 250.730 145.413,251.270 145.588,251.600 145.588 C 252.133 145.588,252.133 145.545,251.600 145.200 C 251.270 144.987,250.730 144.812,250.400 144.812 C 249.867 144.812,249.867 144.855,250.400 145.200 M253.000 146.000 C 254.196 146.514,255.195 146.514,254.400 146.000 C 254.070 145.787,253.440 145.622,253.000 145.634 L 252.200 145.656 253.000 146.000 M312.200 146.000 L 311.400 146.344 312.200 146.344 C 312.640 146.344,313.360 146.189,313.800 146.000 L 314.600 145.656 313.800 145.656 C 313.360 145.656,312.640 145.811,312.200 146.000 M256.200 146.800 C 256.640 146.989,257.360 147.144,257.800 147.144 L 258.600 147.144 257.800 146.800 C 257.360 146.611,256.640 146.456,256.200 146.456 L 255.400 146.456 256.200 146.800 M309.000 146.800 C 307.981 147.238,309.032 147.238,310.400 146.800 C 311.204 146.543,311.243 146.477,310.600 146.468 C 310.160 146.462,309.440 146.611,309.000 146.800 M259.800 147.600 C 260.240 147.789,260.960 147.944,261.400 147.944 L 262.200 147.944 261.400 147.600 C 260.960 147.411,260.240 147.256,259.800 147.256 L 259.000 147.256 259.800 147.600 M305.400 147.600 L 304.600 147.944 305.400 147.944 C 305.840 147.944,306.560 147.789,307.000 147.600 L 307.800 147.256 307.000 147.256 C 306.560 147.256,305.840 147.411,305.400 147.600 M263.800 148.400 C 264.460 148.568,265.540 148.705,266.200 148.705 L 267.400 148.705 266.200 148.400 C 265.540 148.232,264.460 148.095,263.800 148.095 L 262.600 148.095 263.800 148.400 M300.400 148.400 L 299.400 148.720 300.400 148.713 C 300.950 148.709,301.940 148.568,302.600 148.400 L 303.800 148.095 302.600 148.087 C 301.940 148.083,300.950 148.224,300.400 148.400 M269.400 149.200 C 270.060 149.368,271.050 149.509,271.600 149.513 L 272.600 149.520 271.600 149.200 C 271.050 149.024,270.060 148.883,269.400 148.887 L 268.200 148.895 269.400 149.200 M295.000 149.200 L 293.800 149.505 295.000 149.505 C 295.660 149.505,296.740 149.368,297.400 149.200 L 298.600 148.895 297.400 148.895 C 296.740 148.895,295.660 149.032,295.000 149.200 M279.415 150.080 C 281.624 150.263,285.224 150.262,287.415 150.080 C 290.986 149.783,290.569 149.748,283.400 149.749 C 276.206 149.749,275.805 149.783,279.415 150.080 M38.968 174.354 C 37.689 175.134,35.200 177.906,35.200 178.551 C 35.200 178.754,35.714 178.211,36.341 177.344 C 37.648 175.540,38.916 174.617,40.848 174.061 C 42.009 173.727,42.059 173.667,41.200 173.638 C 40.650 173.619,39.646 173.941,38.968 174.354 M45.504 174.134 C 47.497 174.857,49.398 176.561,50.345 178.473 C 50.819 179.431,51.200 179.871,51.200 179.462 C 51.201 177.488,46.980 173.548,44.953 173.630 C 44.484 173.649,44.692 173.839,45.504 174.134 M185.000 174.000 L 184.200 174.344 185.000 174.332 C 185.440 174.326,186.250 174.176,186.800 174.000 L 187.800 173.680 186.800 173.668 C 186.250 173.662,185.440 173.811,185.000 174.000 M192.000 174.000 C 192.550 174.176,193.360 174.326,193.800 174.332 L 194.600 174.344 193.800 174.000 C 193.360 173.811,192.550 173.662,192.000 173.668 L 191.000 173.680 192.000 174.000 M177.882 178.036 C 176.841 179.156,175.797 180.461,175.562 180.936 C 175.327 181.411,175.645 181.173,176.268 180.407 C 176.890 179.641,178.119 178.336,178.998 177.507 C 179.877 176.678,180.411 176.000,180.185 176.000 C 179.959 176.000,178.923 176.916,177.882 178.036 M200.327 178.079 C 201.476 179.222,202.953 181.231,203.608 182.543 C 204.264 183.855,204.800 184.713,204.800 184.451 C 204.800 182.848,199.747 176.000,198.565 176.000 C 198.384 176.000,199.177 176.936,200.327 178.079 M34.597 180.900 C 34.459 181.835,34.504 183.025,34.698 183.544 C 34.960 184.248,35.050 183.816,35.050 181.844 C 35.050 178.766,34.946 178.548,34.597 180.900 M364.715 181.928 C 364.338 182.078,366.014 182.200,368.439 182.200 C 370.863 182.200,372.432 182.083,371.924 181.940 C 370.694 181.594,365.579 181.585,364.715 181.928 M360.491 183.390 C 357.126 184.956,351.195 191.381,351.201 193.452 C 351.202 193.644,351.848 192.720,352.637 191.400 C 355.032 187.394,358.129 184.656,361.963 183.156 C 362.973 182.761,363.530 182.431,363.200 182.423 C 362.870 182.414,361.651 182.850,360.491 183.390 M374.837 183.156 C 378.380 184.542,382.282 187.864,383.788 190.776 C 384.136 191.449,384.511 192.000,384.621 192.000 C 385.174 192.000,383.231 189.153,381.285 187.113 C 379.176 184.903,375.061 182.377,373.636 182.419 C 373.286 182.429,373.827 182.761,374.837 183.156 M50.798 184.100 C 50.796 184.375,50.526 185.140,50.197 185.800 L 49.599 187.000 50.399 186.056 C 51.117 185.209,51.511 183.600,51.000 183.600 C 50.890 183.600,50.799 183.825,50.798 184.100 M173.829 184.629 C 173.681 185.215,173.651 185.784,173.761 185.894 C 173.871 186.004,174.081 185.615,174.229 185.029 C 174.376 184.442,174.406 183.873,174.296 183.763 C 174.186 183.653,173.976 184.042,173.829 184.629 M35.776 186.279 C 36.404 187.568,39.041 189.892,39.432 189.501 C 39.548 189.386,39.003 188.896,38.221 188.413 C 37.439 187.930,36.796 187.414,36.791 187.267 C 36.786 187.120,36.415 186.550,35.967 186.000 L 35.152 185.000 35.776 186.279 M205.000 189.600 C 205.000 192.004,205.122 193.662,205.272 193.285 C 205.421 192.908,205.544 191.250,205.544 189.600 C 205.544 187.950,205.421 186.292,205.272 185.915 C 205.122 185.538,205.000 187.196,205.000 189.600 M173.334 189.600 C 173.334 191.250,173.405 191.925,173.491 191.100 C 173.578 190.275,173.578 188.925,173.491 188.100 C 173.405 187.275,173.334 187.950,173.334 189.600 M47.603 188.507 C 45.981 189.655,45.524 189.778,42.887 189.778 C 40.058 189.778,39.979 190.317,42.800 190.370 C 44.935 190.409,46.868 189.738,48.407 188.423 C 50.223 186.871,49.862 186.909,47.603 188.507 M173.634 193.600 C 173.646 193.930,173.811 194.560,174.000 195.000 L 174.344 195.800 174.366 195.000 C 174.378 194.560,174.213 193.930,174.000 193.600 C 173.655 193.067,173.615 193.067,173.634 193.600 M203.517 196.718 C 202.423 199.024,200.407 201.509,198.983 202.306 C 198.556 202.545,198.321 202.854,198.460 202.994 C 199.214 203.748,205.147 196.002,204.730 194.808 C 204.659 194.603,204.113 195.462,203.517 196.718 M350.649 195.015 C 350.512 195.373,350.416 196.056,350.436 196.533 C 350.462 197.147,350.585 197.008,350.859 196.056 C 351.257 194.672,351.094 193.858,350.649 195.015 M385.646 194.800 C 385.665 195.130,385.824 195.850,386.000 196.400 L 386.320 197.400 386.354 196.400 C 386.373 195.850,386.213 195.130,386.000 194.800 C 385.655 194.267,385.616 194.267,385.646 194.800 M175.189 197.578 C 176.636 200.415,182.614 205.520,183.478 204.656 C 183.588 204.546,182.868 204.087,181.879 203.636 C 179.731 202.658,176.675 199.708,175.576 197.552 C 175.140 196.698,174.694 196.000,174.584 196.000 C 174.474 196.000,174.746 196.710,175.189 197.578 M350.101 200.200 C 350.105 201.080,350.187 201.393,350.283 200.895 C 350.379 200.398,350.375 199.678,350.275 199.295 C 350.175 198.913,350.096 199.320,350.101 200.200 M386.501 200.200 C 386.505 201.080,386.587 201.393,386.683 200.895 C 386.779 200.398,386.775 199.678,386.675 199.295 C 386.575 198.913,386.496 199.320,386.501 200.200 M350.434 203.600 C 350.446 203.930,350.611 204.560,350.800 205.000 L 351.144 205.800 351.166 205.000 C 351.178 204.560,351.013 203.930,350.800 203.600 C 350.455 203.067,350.415 203.067,350.434 203.600 M385.873 203.753 C 385.723 204.145,385.611 204.766,385.625 205.133 C 385.642 205.575,385.781 205.474,386.037 204.834 C 386.249 204.303,386.361 203.682,386.285 203.454 C 386.209 203.227,386.024 203.361,385.873 203.753 M184.800 205.200 C 185.130 205.413,185.670 205.588,186.000 205.588 C 186.533 205.588,186.533 205.545,186.000 205.200 C 185.670 204.987,185.130 204.812,184.800 204.812 C 184.267 204.812,184.267 204.855,184.800 205.200 M192.800 205.200 C 192.005 205.714,193.004 205.714,194.200 205.200 L 195.000 204.856 194.200 204.834 C 193.760 204.822,193.130 204.987,192.800 205.200 M353.101 210.203 C 354.437 212.740,361.132 217.628,363.200 217.577 C 363.530 217.569,362.973 217.239,361.963 216.844 C 359.379 215.833,356.821 213.984,354.591 211.516 C 353.539 210.352,352.869 209.761,353.101 210.203 M381.200 212.367 C 378.925 214.701,376.458 216.310,373.600 217.324 C 373.067 217.513,373.067 217.540,373.600 217.565 C 375.578 217.656,382.325 212.782,383.652 210.303 C 384.176 209.323,384.116 209.374,381.200 212.367 M273.400 211.568 C 272.300 211.702,274.910 211.815,279.200 211.820 C 283.761 211.825,286.169 211.713,285.000 211.550 C 282.622 211.217,276.210 211.227,273.400 211.568 M267.600 212.400 L 266.600 212.720 267.600 212.720 C 268.150 212.720,269.050 212.576,269.600 212.400 L 270.600 212.080 269.600 212.080 C 269.050 212.080,268.150 212.224,267.600 212.400 M288.800 212.400 C 290.267 212.870,292.094 212.870,291.000 212.400 C 290.560 212.211,289.660 212.062,289.000 212.068 C 287.830 212.079,287.825 212.088,288.800 212.400 M264.200 213.200 L 263.400 213.544 264.200 213.566 C 264.640 213.578,265.270 213.413,265.600 213.200 C 266.395 212.686,265.396 212.686,264.200 213.200 M292.800 213.200 C 293.130 213.413,293.760 213.578,294.200 213.566 L 295.000 213.544 294.200 213.200 C 293.004 212.686,292.005 212.686,292.800 213.200 M260.200 214.400 C 258.067 215.388,258.886 215.400,261.400 214.418 C 262.500 213.989,263.040 213.642,262.600 213.648 C 262.160 213.654,261.080 213.993,260.200 214.400 M296.000 214.000 C 296.330 214.213,296.870 214.388,297.200 214.388 C 297.733 214.388,297.733 214.345,297.200 214.000 C 296.870 213.787,296.330 213.612,296.000 213.612 C 295.467 213.612,295.467 213.655,296.000 214.000 M302.363 216.422 C 303.772 217.074,304.991 217.542,305.071 217.462 C 305.246 217.287,300.650 215.192,300.150 215.218 C 299.957 215.228,300.953 215.770,302.363 216.422 M253.059 217.446 C 251.552 218.219,250.387 218.920,250.470 219.004 C 250.611 219.145,255.951 216.583,256.352 216.181 C 256.865 215.668,255.506 216.190,253.059 217.446 M364.715 218.072 C 365.092 218.221,366.750 218.344,368.400 218.344 C 370.050 218.344,371.708 218.221,372.085 218.072 C 372.462 217.922,370.804 217.800,368.400 217.800 C 365.996 217.800,364.338 217.922,364.715 218.072 M307.800 218.996 C 308.694 219.739,311.228 221.109,310.600 220.510 C 310.380 220.300,309.480 219.724,308.600 219.230 C 307.720 218.735,307.360 218.630,307.800 218.996 M246.710 221.178 C 245.084 222.266,242.954 223.896,241.976 224.800 L 240.200 226.445 242.404 224.723 C 243.616 223.775,245.821 222.214,247.304 221.253 C 249.743 219.673,250.325 219.200,249.834 219.200 C 249.742 219.200,248.336 220.090,246.710 221.178 M311.400 221.084 C 311.620 221.305,313.060 222.433,314.600 223.591 C 318.610 226.605,324.329 232.532,326.793 236.226 C 329.077 239.652,329.999 240.795,329.192 239.200 C 327.019 234.907,320.154 227.277,315.008 223.437 C 312.163 221.313,310.637 220.318,311.400 221.084 M60.600 222.019 C 60.042 222.271,60.285 222.307,61.400 222.138 C 62.280 222.004,63.075 221.828,63.167 221.747 C 63.510 221.444,61.368 221.671,60.600 222.019 M65.233 221.747 C 65.325 221.828,66.120 222.004,67.000 222.138 C 68.115 222.307,68.358 222.271,67.800 222.019 C 67.032 221.671,64.890 221.444,65.233 221.747 M57.076 223.632 C 54.702 225.205,51.505 229.238,52.133 229.867 C 52.242 229.976,52.656 229.381,53.053 228.546 C 53.969 226.614,56.200 224.376,58.113 223.468 C 58.931 223.080,59.600 222.681,59.600 222.581 C 59.600 222.153,58.818 222.479,57.076 223.632 M70.085 223.220 C 71.644 224.043,74.134 226.305,75.346 228.000 C 76.046 228.980,76.047 228.976,75.378 227.800 C 74.084 225.528,70.345 222.362,69.022 222.418 C 68.790 222.427,69.268 222.788,70.085 223.220 M237.390 228.810 C 236.089 230.125,235.147 231.200,235.296 231.200 C 235.629 231.200,240.043 226.710,239.875 226.542 C 239.809 226.475,238.690 227.496,237.390 228.810 M51.456 231.284 C 51.321 231.788,51.227 232.560,51.246 233.000 C 51.265 233.440,51.445 233.098,51.646 232.240 C 52.036 230.578,51.870 229.740,51.456 231.284 M76.928 234.800 C 76.925 237.853,76.959 238.010,77.265 236.341 C 77.452 235.319,77.453 233.789,77.268 232.941 C 76.990 231.672,76.930 232.000,76.928 234.800 M233.952 232.700 C 232.408 234.403,229.514 238.565,230.684 237.400 C 231.304 236.783,235.235 231.600,235.084 231.600 C 235.010 231.600,234.501 232.095,233.952 232.700 M51.228 236.433 C 51.244 236.965,51.419 237.760,51.619 238.200 C 51.871 238.758,51.907 238.515,51.738 237.400 C 51.455 235.543,51.187 235.036,51.228 236.433 M228.642 240.330 C 227.010 243.017,224.573 248.137,224.230 249.600 L 223.996 250.600 224.472 249.600 C 224.734 249.050,225.721 246.980,226.664 245.000 C 227.608 243.020,228.853 240.635,229.430 239.700 C 230.008 238.765,230.386 238.000,230.270 238.000 C 230.153 238.000,229.421 239.049,228.642 240.330 M75.667 240.342 C 74.525 242.748,72.438 244.817,69.800 246.161 C 68.700 246.721,68.080 247.184,68.422 247.190 C 70.682 247.227,77.303 240.508,76.722 238.766 C 76.652 238.557,76.178 239.266,75.667 240.342 M52.018 239.422 C 51.962 240.745,55.128 244.484,57.400 245.778 C 58.591 246.456,58.592 246.455,57.600 245.730 C 55.842 244.446,53.629 242.019,52.820 240.487 C 52.389 239.669,52.027 239.190,52.018 239.422 M330.186 241.500 C 330.535 242.215,330.906 242.800,331.010 242.800 C 331.408 242.800,331.152 242.163,330.367 241.200 L 329.552 240.200 330.186 241.500 M332.846 246.600 C 332.853 246.820,333.206 247.720,333.629 248.600 C 334.052 249.480,334.286 249.750,334.149 249.200 C 333.867 248.067,332.825 245.988,332.846 246.600 M62.541 247.668 C 63.389 247.853,64.919 247.852,65.941 247.665 C 67.610 247.359,67.453 247.325,64.400 247.328 C 61.600 247.330,61.272 247.390,62.541 247.668 M361.200 247.577 C 359.550 247.704,362.250 247.814,367.200 247.819 C 373.431 247.826,375.154 247.745,372.800 247.554 C 368.896 247.239,365.477 247.245,361.200 247.577 M353.600 248.400 L 352.200 248.695 353.600 248.700 C 354.370 248.703,355.540 248.568,356.200 248.400 L 357.400 248.095 356.200 248.100 C 355.540 248.103,354.370 248.238,353.600 248.400 M378.200 248.400 C 378.860 248.568,380.030 248.706,380.800 248.707 L 382.200 248.708 380.600 248.377 C 378.445 247.931,376.434 247.951,378.200 248.400 M349.000 249.200 C 347.981 249.638,349.032 249.638,350.400 249.200 C 351.204 248.943,351.243 248.877,350.600 248.868 C 350.160 248.862,349.440 249.011,349.000 249.200 M384.000 249.200 C 385.368 249.638,386.419 249.638,385.400 249.200 C 384.960 249.011,384.240 248.862,383.800 248.868 C 383.157 248.877,383.196 248.943,384.000 249.200 M345.800 250.000 C 345.296 250.217,345.222 250.344,345.600 250.344 C 345.930 250.344,346.560 250.189,347.000 250.000 C 347.504 249.783,347.578 249.656,347.200 249.656 C 346.870 249.656,346.240 249.811,345.800 250.000 M387.400 250.000 C 387.840 250.189,388.560 250.344,389.000 250.344 L 389.800 250.344 389.000 250.000 C 388.560 249.811,387.840 249.656,387.400 249.656 L 386.600 249.656 387.400 250.000 M334.430 250.720 C 334.370 251.767,335.594 253.577,336.203 253.343 C 336.922 253.068,337.014 252.657,336.300 252.912 C 336.019 253.012,335.506 252.457,335.130 251.645 C 334.761 250.850,334.446 250.434,334.430 250.720 M342.600 250.800 C 342.096 251.017,342.022 251.144,342.400 251.144 C 342.730 251.144,343.360 250.989,343.800 250.800 C 344.304 250.583,344.378 250.456,344.000 250.456 C 343.670 250.456,343.040 250.611,342.600 250.800 M390.600 250.800 C 391.040 250.989,391.760 251.144,392.200 251.144 L 393.000 251.144 392.200 250.800 C 391.760 250.611,391.040 250.456,390.600 250.456 L 389.800 250.456 390.600 250.800 M223.400 251.600 C 223.250 252.073,223.217 252.550,223.327 252.660 C 223.437 252.770,223.650 252.473,223.800 252.000 C 223.950 251.527,223.983 251.050,223.873 250.940 C 223.763 250.830,223.550 251.127,223.400 251.600 M340.000 251.600 C 339.467 251.945,339.467 251.988,340.000 251.988 C 340.330 251.988,340.870 251.813,341.200 251.600 C 341.733 251.255,341.733 251.212,341.200 251.212 C 340.870 251.212,340.330 251.387,340.000 251.600 M397.600 253.200 C 397.930 253.413,398.470 253.588,398.800 253.588 C 399.333 253.588,399.333 253.545,398.800 253.200 C 398.470 252.987,397.930 252.812,397.600 252.812 C 397.067 252.812,397.067 252.855,397.600 253.200 M222.576 254.397 C 222.354 255.166,221.908 255.830,221.586 255.873 C 221.264 255.917,219.771 256.069,218.269 256.211 C 216.766 256.354,215.633 256.566,215.751 256.684 C 217.214 258.147,223.500 255.620,223.124 253.720 C 223.029 253.239,222.847 253.465,222.576 254.397 M211.000 257.200 L 209.800 257.505 211.000 257.505 C 211.660 257.505,212.740 257.368,213.400 257.200 L 214.600 256.895 213.400 256.895 C 212.740 256.895,211.660 257.032,211.000 257.200 M206.000 258.000 L 205.000 258.320 206.000 258.320 C 206.550 258.320,207.450 258.176,208.000 258.000 L 209.000 257.680 208.000 257.680 C 207.450 257.680,206.550 257.824,206.000 258.000 M202.600 258.800 L 201.800 259.144 202.600 259.144 C 203.040 259.144,203.760 258.989,204.200 258.800 L 205.000 258.456 204.200 258.456 C 203.760 258.456,203.040 258.611,202.600 258.800 M199.400 259.600 L 198.600 259.944 199.400 259.944 C 199.840 259.944,200.560 259.789,201.000 259.600 L 201.800 259.256 201.000 259.256 C 200.560 259.256,199.840 259.411,199.400 259.600 M196.200 260.400 L 195.400 260.744 196.200 260.744 C 196.640 260.744,197.360 260.589,197.800 260.400 L 198.600 260.056 197.800 260.056 C 197.360 260.056,196.640 260.211,196.200 260.400 M191.600 262.000 C 191.067 262.345,191.067 262.388,191.600 262.388 C 191.930 262.388,192.470 262.213,192.800 262.000 C 193.333 261.655,193.333 261.612,192.800 261.612 C 192.470 261.612,191.930 261.787,191.600 262.000 M189.200 262.800 C 188.667 263.145,188.667 263.188,189.200 263.188 C 189.530 263.188,190.070 263.013,190.400 262.800 C 190.933 262.455,190.933 262.412,190.400 262.412 C 190.070 262.412,189.530 262.587,189.200 262.800 M185.600 264.134 C 183.470 265.019,180.384 266.654,181.600 266.253 C 182.520 265.949,188.178 263.523,188.367 263.352 C 188.792 262.964,187.604 263.300,185.600 264.134 M175.272 269.043 C 174.322 269.612,173.637 270.170,173.749 270.283 C 173.862 270.395,174.487 270.108,175.139 269.644 C 175.790 269.180,176.510 268.800,176.738 268.800 C 176.966 268.800,177.264 268.620,177.400 268.400 C 177.811 267.735,177.093 267.952,175.272 269.043 M58.200 269.981 C 56.569 270.121,58.740 270.223,63.400 270.227 C 68.710 270.230,70.391 270.144,68.400 269.969 C 64.821 269.654,61.984 269.657,58.200 269.981 M49.400 270.800 L 48.200 271.105 49.400 271.113 C 50.060 271.117,51.050 270.976,51.600 270.800 L 52.600 270.480 51.600 270.487 C 51.050 270.491,50.060 270.632,49.400 270.800 M75.000 270.800 C 75.660 270.968,76.740 271.105,77.400 271.105 L 78.600 271.105 77.400 270.800 C 76.740 270.632,75.660 270.495,75.000 270.495 L 73.800 270.495 75.000 270.800 M171.272 271.443 C 170.322 272.012,169.631 272.564,169.736 272.669 C 169.920 272.853,173.200 270.844,173.200 270.547 C 173.200 270.305,173.072 270.365,171.272 271.443 M43.800 271.600 L 42.600 271.905 43.800 271.905 C 44.460 271.905,45.540 271.768,46.200 271.600 L 47.400 271.295 46.200 271.295 C 45.540 271.295,44.460 271.432,43.800 271.600 M80.400 271.600 C 80.950 271.776,81.940 271.917,82.600 271.913 L 83.800 271.905 82.600 271.600 C 81.940 271.432,80.950 271.291,80.400 271.287 L 79.400 271.280 80.400 271.600 M39.800 272.400 L 39.000 272.744 39.800 272.744 C 40.240 272.744,40.960 272.589,41.400 272.400 L 42.200 272.056 41.400 272.056 C 40.960 272.056,40.240 272.211,39.800 272.400 M85.400 272.400 C 85.840 272.589,86.560 272.738,87.000 272.732 C 87.643 272.723,87.604 272.657,86.800 272.400 C 85.432 271.962,84.381 271.962,85.400 272.400 M36.600 273.200 L 35.800 273.544 36.600 273.544 C 37.040 273.544,37.760 273.389,38.200 273.200 L 39.000 272.856 38.200 272.856 C 37.760 272.856,37.040 273.011,36.600 273.200 M88.600 273.200 C 89.040 273.389,89.760 273.538,90.200 273.532 C 90.843 273.523,90.804 273.457,90.000 273.200 C 88.632 272.762,87.581 272.762,88.600 273.200 M166.451 274.430 C 165.109 275.326,163.899 276.240,163.762 276.462 C 163.625 276.683,164.793 276.013,166.357 274.973 C 168.934 273.260,169.503 272.800,169.046 272.800 C 168.961 272.800,167.793 273.533,166.451 274.430 M33.400 274.000 L 32.600 274.344 33.400 274.366 C 33.840 274.378,34.470 274.213,34.800 274.000 C 35.595 273.486,34.596 273.486,33.400 274.000 M91.800 274.000 C 92.240 274.189,92.960 274.338,93.400 274.332 C 94.043 274.323,94.004 274.257,93.200 274.000 C 91.832 273.562,90.781 273.562,91.800 274.000 M30.200 274.800 L 29.400 275.144 30.200 275.166 C 30.640 275.178,31.270 275.013,31.600 274.800 C 32.395 274.286,31.396 274.286,30.200 274.800 M95.000 274.800 C 95.440 274.989,96.070 275.144,96.400 275.144 C 96.778 275.144,96.704 275.017,96.200 274.800 C 95.760 274.611,95.130 274.456,94.800 274.456 C 94.422 274.456,94.496 274.583,95.000 274.800 M97.600 275.600 C 97.930 275.813,98.470 275.988,98.800 275.988 C 99.333 275.988,99.333 275.945,98.800 275.600 C 98.470 275.387,97.930 275.212,97.600 275.212 C 97.067 275.212,97.067 275.255,97.600 275.600 M161.585 278.018 L 160.200 279.235 161.695 278.318 C 162.517 277.813,163.192 277.265,163.195 277.100 C 163.203 276.637,163.069 276.713,161.585 278.018 M18.000 279.600 C 16.790 280.239,15.913 280.771,16.052 280.781 C 16.422 280.809,20.800 278.771,20.800 278.571 C 20.800 278.225,20.150 278.464,18.000 279.600 M107.600 279.371 C 107.600 279.571,111.978 281.609,112.348 281.581 C 112.664 281.557,108.309 279.245,107.900 279.219 C 107.735 279.208,107.600 279.277,107.600 279.371 M157.548 281.229 C 156.367 282.365,156.140 282.666,157.045 281.898 C 157.950 281.130,159.029 280.312,159.442 280.081 C 159.855 279.849,160.081 279.548,159.945 279.411 C 159.808 279.275,158.730 280.093,157.548 281.229 M10.900 283.029 C 9.525 283.809,8.400 284.525,8.400 284.620 C 8.400 284.786,13.620 282.109,13.967 281.765 C 14.537 281.199,13.040 281.816,10.900 283.029 M116.600 283.796 C 117.494 284.539,120.028 285.909,119.400 285.310 C 119.180 285.100,118.280 284.524,117.400 284.030 C 116.520 283.535,116.160 283.430,116.600 283.796 M149.525 288.485 C 144.693 293.356,138.760 300.406,139.502 300.396 C 139.666 300.394,140.570 299.335,141.510 298.044 C 144.288 294.232,148.957 289.180,153.330 285.259 C 154.392 284.307,155.168 283.435,155.055 283.322 C 154.942 283.209,152.454 285.532,149.525 288.485 M4.113 287.089 C 2.085 288.338,0.487 289.420,0.561 289.494 C 0.705 289.638,7.147 285.777,7.780 285.166 C 8.533 284.440,7.739 284.857,4.113 287.089 M120.000 285.741 C 120.000 285.844,121.192 286.681,122.649 287.601 C 126.171 289.826,132.516 294.537,135.000 296.773 C 138.142 299.600,138.915 300.040,136.232 297.474 C 132.809 294.201,120.000 284.942,120.000 285.741 " stroke="none" fill="#a6d0bc" fill-rule="evenodd"></path><path id="path3" d="M356.975 121.300 L 355.800 122.600 357.100 121.425 C 357.815 120.779,358.400 120.194,358.400 120.125 C 358.400 119.816,358.070 120.088,356.975 121.300 M139.700 134.276 C 140.085 134.376,140.715 134.376,141.100 134.276 C 141.485 134.175,141.170 134.093,140.400 134.093 C 139.630 134.093,139.315 134.175,139.700 134.276 M158.900 134.276 C 159.285 134.376,159.915 134.376,160.300 134.276 C 160.685 134.175,160.370 134.093,159.600 134.093 C 158.830 134.093,158.515 134.175,158.900 134.276 M149.100 134.682 C 149.595 134.778,150.405 134.778,150.900 134.682 C 151.395 134.587,150.990 134.509,150.000 134.509 C 149.010 134.509,148.605 134.587,149.100 134.682 M47.305 141.487 C 47.914 141.579,48.814 141.577,49.305 141.482 C 49.797 141.387,49.300 141.311,48.200 141.314 C 47.100 141.317,46.697 141.395,47.305 141.487 M53.705 141.487 C 54.314 141.579,55.214 141.577,55.705 141.482 C 56.197 141.387,55.700 141.311,54.600 141.314 C 53.500 141.317,53.097 141.395,53.705 141.487 M273.105 149.483 C 273.602 149.579,274.322 149.575,274.705 149.475 C 275.087 149.375,274.680 149.296,273.800 149.301 C 272.920 149.305,272.607 149.387,273.105 149.483 M292.100 149.476 C 292.485 149.576,293.115 149.576,293.500 149.476 C 293.885 149.375,293.570 149.293,292.800 149.293 C 292.030 149.293,291.715 149.375,292.100 149.476 M282.705 149.883 C 283.202 149.979,283.922 149.975,284.305 149.875 C 284.687 149.775,284.280 149.696,283.400 149.701 C 282.520 149.705,282.207 149.787,282.705 149.883 M277.900 211.889 C 278.615 211.978,279.785 211.978,280.500 211.889 C 281.215 211.801,280.630 211.728,279.200 211.728 C 277.770 211.728,277.185 211.801,277.900 211.889 M237.978 228.700 L 236.600 230.200 238.100 228.822 C 239.496 227.538,239.784 227.200,239.478 227.200 C 239.412 227.200,238.737 227.875,237.978 228.700 M366.100 247.887 C 366.705 247.978,367.695 247.978,368.300 247.887 C 368.905 247.795,368.410 247.720,367.200 247.720 C 365.990 247.720,365.495 247.795,366.100 247.887 M222.180 255.971 C 221.971 256.176,221.170 256.417,220.400 256.507 L 219.000 256.672 220.451 256.736 C 221.320 256.774,222.102 256.559,222.400 256.200 C 222.946 255.542,222.787 255.378,222.180 255.971 M62.705 270.283 C 63.202 270.379,63.922 270.375,64.305 270.275 C 64.687 270.175,64.280 270.096,63.400 270.101 C 62.520 270.105,62.207 270.187,62.705 270.283 M53.105 270.683 C 53.602 270.779,54.322 270.775,54.705 270.675 C 55.087 270.575,54.680 270.496,53.800 270.501 C 52.920 270.505,52.607 270.587,53.105 270.683 M72.100 270.676 C 72.485 270.776,73.115 270.776,73.500 270.676 C 73.885 270.575,73.570 270.493,72.800 270.493 C 72.030 270.493,71.715 270.575,72.100 270.676 M149.381 288.900 L 147.800 290.600 149.500 289.019 C 151.081 287.548,151.384 287.200,151.081 287.200 C 151.016 287.200,150.251 287.965,149.381 288.900 M145.775 292.900 L 144.600 294.200 145.900 293.025 C 147.112 291.930,147.384 291.600,147.075 291.600 C 147.006 291.600,146.421 292.185,145.775 292.900 " stroke="none" fill="#82bda3" fill-rule="evenodd"></path><path id="path4" d="M359.000 119.074 C 355.062 122.866,354.978 122.973,358.200 120.096 C 361.664 117.003,363.926 114.780,363.570 114.818 C 363.476 114.828,361.420 116.743,359.000 119.074 M365.724 115.877 C 366.060 116.421,369.200 118.955,369.200 118.682 C 369.200 118.580,368.353 117.803,367.319 116.955 C 366.284 116.107,365.566 115.622,365.724 115.877 M203.700 120.046 C 202.337 120.919,201.895 121.506,203.100 120.843 C 204.018 120.339,205.456 119.227,205.200 119.219 C 205.090 119.216,204.415 119.588,203.700 120.046 M211.200 122.547 C 211.970 123.384,213.140 124.443,213.800 124.900 C 215.209 125.874,214.956 125.604,212.000 122.978 C 210.242 121.417,210.082 121.330,211.200 122.547 M198.800 122.600 C 198.250 122.914,197.980 123.172,198.200 123.172 C 198.420 123.172,199.050 122.914,199.600 122.600 C 200.150 122.286,200.420 122.028,200.200 122.028 C 199.980 122.028,199.350 122.286,198.800 122.600 M352.200 125.060 C 350.995 126.136,350.905 126.285,351.836 125.663 C 352.941 124.924,354.332 123.576,353.949 123.615 C 353.867 123.623,353.080 124.273,352.200 125.060 M101.487 125.768 C 99.533 127.121,98.522 127.993,99.600 127.396 C 99.930 127.213,100.927 126.572,101.816 125.971 C 102.704 125.370,103.874 124.795,104.416 124.693 L 105.400 124.509 104.400 124.477 C 103.850 124.459,102.539 125.040,101.487 125.768 M215.600 126.146 C 215.600 126.256,216.140 126.730,216.800 127.200 C 217.460 127.670,218.000 127.964,218.000 127.854 C 218.000 127.744,217.460 127.270,216.800 126.800 C 216.140 126.330,215.600 126.036,215.600 126.146 M2.600 127.007 C 3.040 127.366,3.760 127.835,4.200 128.051 L 5.000 128.444 4.200 127.793 C 3.760 127.434,3.040 126.965,2.600 126.749 L 1.800 126.356 2.600 127.007 M348.600 127.835 L 347.400 128.866 348.700 128.006 C 349.415 127.533,350.000 127.068,350.000 126.973 C 350.000 126.673,349.831 126.778,348.600 127.835 M113.546 128.216 C 114.286 128.537,115.096 128.793,115.346 128.784 C 115.596 128.776,115.194 128.506,114.454 128.184 C 113.714 127.863,112.904 127.607,112.654 127.616 C 112.404 127.624,112.806 127.894,113.546 128.216 M96.500 128.846 C 95.137 129.719,94.695 130.306,95.900 129.643 C 96.818 129.139,98.256 128.027,98.000 128.019 C 97.890 128.016,97.215 128.388,96.500 128.846 M6.800 129.564 C 7.350 130.014,7.980 130.383,8.200 130.385 C 8.628 130.388,7.905 129.834,6.600 129.160 C 6.069 128.885,6.136 129.021,6.800 129.564 M90.000 132.200 C 89.450 132.514,89.180 132.772,89.400 132.772 C 89.620 132.772,90.250 132.514,90.800 132.200 C 91.350 131.886,91.620 131.628,91.400 131.628 C 91.180 131.628,90.550 131.886,90.000 132.200 M223.600 132.020 C 224.987 132.961,225.778 133.235,224.800 132.436 C 224.250 131.986,223.620 131.617,223.400 131.615 C 223.180 131.613,223.270 131.796,223.600 132.020 M130.305 132.683 C 130.802 132.779,131.522 132.775,131.905 132.675 C 132.287 132.575,131.880 132.496,131.000 132.501 C 130.120 132.505,129.807 132.587,130.305 132.683 M168.305 132.683 C 168.802 132.779,169.522 132.775,169.905 132.675 C 170.287 132.575,169.880 132.496,169.000 132.501 C 168.120 132.505,167.807 132.587,168.305 132.683 M339.700 133.646 C 338.337 134.519,337.895 135.106,339.100 134.443 C 340.018 133.939,341.456 132.827,341.200 132.819 C 341.090 132.816,340.415 133.188,339.700 133.646 M15.200 133.800 C 15.750 134.114,16.380 134.372,16.600 134.372 C 16.820 134.372,16.550 134.114,16.000 133.800 C 15.450 133.486,14.820 133.228,14.600 133.228 C 14.380 133.228,14.650 133.486,15.200 133.800 M135.505 133.483 C 136.002 133.579,136.722 133.575,137.105 133.475 C 137.487 133.375,137.080 133.296,136.200 133.301 C 135.320 133.305,135.007 133.387,135.505 133.483 M163.105 133.483 C 163.602 133.579,164.322 133.575,164.705 133.475 C 165.087 133.375,164.680 133.296,163.800 133.301 C 162.920 133.305,162.607 133.387,163.105 133.483 M227.400 134.207 C 227.840 134.566,228.560 135.035,229.000 135.251 L 229.800 135.644 229.000 134.993 C 228.560 134.634,227.840 134.165,227.400 133.949 L 226.600 133.556 227.400 134.207 M143.500 134.295 C 144.655 134.376,146.545 134.376,147.700 134.295 C 148.855 134.214,147.910 134.148,145.600 134.148 C 143.290 134.148,142.345 134.214,143.500 134.295 M152.300 134.295 C 153.455 134.376,155.345 134.376,156.500 134.295 C 157.655 134.214,156.710 134.148,154.400 134.148 C 152.090 134.148,151.145 134.214,152.300 134.295 M335.800 136.000 C 335.140 136.437,334.780 136.792,335.000 136.788 C 335.401 136.782,337.576 135.223,337.200 135.212 C 337.090 135.208,336.460 135.563,335.800 136.000 M21.546 136.216 C 22.286 136.537,23.096 136.793,23.346 136.784 C 23.596 136.776,23.194 136.506,22.454 136.184 C 21.714 135.863,20.904 135.607,20.654 135.616 C 20.404 135.624,20.806 135.894,21.546 136.216 M77.200 137.200 C 76.376 137.464,76.341 137.526,77.000 137.554 C 77.440 137.573,78.070 137.413,78.400 137.200 C 79.101 136.747,78.614 136.747,77.200 137.200 M35.105 139.883 C 35.602 139.979,36.322 139.975,36.705 139.875 C 37.087 139.775,36.680 139.696,35.800 139.701 C 34.920 139.705,34.607 139.787,35.105 139.883 M66.305 139.883 C 66.802 139.979,67.522 139.975,67.905 139.875 C 68.287 139.775,67.880 139.696,67.000 139.701 C 66.120 139.705,65.807 139.787,66.305 139.883 M40.305 140.683 C 40.802 140.779,41.522 140.775,41.905 140.675 C 42.287 140.575,41.880 140.496,41.000 140.501 C 40.120 140.505,39.807 140.587,40.305 140.683 M61.105 140.683 C 61.602 140.779,62.322 140.775,62.705 140.675 C 63.087 140.575,62.680 140.496,61.800 140.501 C 60.920 140.505,60.607 140.587,61.105 140.683 M240.400 140.966 C 240.950 141.260,241.850 141.612,242.400 141.749 C 242.950 141.886,242.680 141.652,241.800 141.229 C 239.990 140.358,238.868 140.148,240.400 140.966 M44.900 141.087 C 45.505 141.178,46.495 141.178,47.100 141.087 C 47.705 140.995,47.210 140.920,46.000 140.920 C 44.790 140.920,44.295 140.995,44.900 141.087 M55.700 141.087 C 56.305 141.178,57.295 141.178,57.900 141.087 C 58.505 140.995,58.010 140.920,56.800 140.920 C 55.590 140.920,55.095 140.995,55.700 141.087 M50.705 141.483 C 51.202 141.579,51.922 141.575,52.305 141.475 C 52.687 141.375,52.280 141.296,51.400 141.301 C 50.520 141.305,50.207 141.387,50.705 141.483 M321.000 142.614 C 319.385 143.354,320.351 143.355,322.054 142.616 C 322.794 142.294,323.130 142.039,322.800 142.048 C 322.470 142.057,321.660 142.312,321.000 142.614 M249.146 144.216 C 249.886 144.537,250.696 144.793,250.946 144.784 C 251.196 144.776,250.794 144.506,250.054 144.184 C 249.314 143.863,248.504 143.607,248.254 143.616 C 248.004 143.624,248.406 143.894,249.146 144.216 M313.600 145.200 C 312.776 145.464,312.741 145.526,313.400 145.554 C 313.840 145.573,314.470 145.413,314.800 145.200 C 315.501 144.747,315.014 144.747,313.600 145.200 M263.505 147.883 C 264.002 147.979,264.722 147.975,265.105 147.875 C 265.487 147.775,265.080 147.696,264.200 147.701 C 263.320 147.705,263.007 147.787,263.505 147.883 M301.905 147.883 C 302.402 147.979,303.122 147.975,303.505 147.875 C 303.887 147.775,303.480 147.696,302.600 147.701 C 301.720 147.705,301.407 147.787,301.905 147.883 M268.700 148.682 C 269.195 148.778,270.005 148.778,270.500 148.682 C 270.995 148.587,270.590 148.509,269.600 148.509 C 268.610 148.509,268.205 148.587,268.700 148.682 M296.305 148.683 C 296.802 148.779,297.522 148.775,297.905 148.675 C 298.287 148.575,297.880 148.496,297.000 148.501 C 296.120 148.505,295.807 148.587,296.305 148.683 M277.113 149.495 C 278.276 149.576,280.076 149.576,281.113 149.493 C 282.151 149.411,281.200 149.345,279.000 149.346 C 276.800 149.347,275.951 149.414,277.113 149.495 M285.913 149.495 C 287.076 149.576,288.876 149.576,289.913 149.493 C 290.951 149.411,290.000 149.345,287.800 149.346 C 285.600 149.347,284.751 149.414,285.913 149.495 M41.800 174.000 C 41.296 174.217,41.222 174.344,41.600 174.344 C 41.930 174.344,42.560 174.189,43.000 174.000 C 43.504 173.783,43.578 173.656,43.200 173.656 C 42.870 173.656,42.240 173.811,41.800 174.000 M192.433 174.543 C 192.525 174.621,193.230 174.801,194.000 174.942 C 194.985 175.123,195.222 175.082,194.800 174.806 C 194.258 174.450,192.037 174.203,192.433 174.543 M181.200 176.042 C 179.439 177.098,177.763 178.651,176.714 180.200 C 176.267 180.860,176.665 180.536,177.598 179.481 C 178.531 178.426,180.218 177.032,181.347 176.385 C 182.476 175.737,183.220 175.206,183.000 175.205 C 182.780 175.204,181.970 175.581,181.200 176.042 M36.953 176.500 C 35.576 178.836,35.486 179.035,36.187 178.200 C 37.000 177.232,37.700 176.000,37.438 176.000 C 37.333 176.000,37.115 176.225,36.953 176.500 M50.854 181.600 C 50.819 182.150,50.696 183.050,50.583 183.600 L 50.377 184.600 50.807 183.615 C 51.043 183.074,51.165 182.174,51.078 181.615 L 50.920 180.600 50.854 181.600 M367.700 182.276 C 368.085 182.376,368.715 182.376,369.100 182.276 C 369.485 182.175,369.170 182.093,368.400 182.093 C 367.630 182.093,367.315 182.175,367.700 182.276 M364.500 182.676 C 364.885 182.776,365.515 182.776,365.900 182.676 C 366.285 182.575,365.970 182.493,365.200 182.493 C 364.430 182.493,364.115 182.575,364.500 182.676 M370.900 182.676 C 371.285 182.776,371.915 182.776,372.300 182.676 C 372.685 182.575,372.370 182.493,371.600 182.493 C 370.830 182.493,370.515 182.575,370.900 182.676 M35.241 183.656 C 35.218 184.236,35.515 185.055,35.900 185.475 C 36.285 185.894,36.442 186.003,36.249 185.716 C 36.056 185.430,35.759 184.611,35.590 183.898 C 35.307 182.708,35.278 182.688,35.241 183.656 M358.087 185.500 C 357.130 186.435,357.114 186.481,357.981 185.806 C 359.688 184.476,359.769 184.400,359.486 184.400 C 359.336 184.400,358.706 184.895,358.087 185.500 M377.400 184.657 C 379.437 186.464,380.187 186.991,379.402 186.063 C 378.966 185.548,378.247 184.941,377.804 184.714 C 377.362 184.487,377.180 184.462,377.400 184.657 M173.740 189.600 C 173.740 191.470,173.809 192.235,173.893 191.300 C 173.977 190.365,173.977 188.835,173.893 187.900 C 173.809 186.965,173.740 187.730,173.740 189.600 M354.941 188.300 C 353.533 190.072,352.752 191.447,353.977 190.000 C 355.241 188.506,356.476 186.800,356.294 186.800 C 356.206 186.800,355.597 187.475,354.941 188.300 M381.151 187.800 C 382.419 189.641,383.734 191.153,383.237 190.200 C 383.007 189.760,382.258 188.770,381.572 188.000 C 380.516 186.816,380.451 186.785,381.151 187.800 M204.893 189.600 C 204.893 190.370,204.975 190.685,205.076 190.300 C 205.176 189.915,205.176 189.285,205.076 188.900 C 204.975 188.515,204.893 188.830,204.893 189.600 M202.761 197.300 C 202.504 197.795,201.673 199.010,200.914 200.000 L 199.534 201.800 201.003 200.200 C 202.393 198.686,203.850 196.400,203.424 196.400 C 203.316 196.400,203.018 196.805,202.761 197.300 M350.514 200.200 C 350.517 201.300,350.595 201.703,350.687 201.095 C 350.779 200.486,350.777 199.586,350.682 199.095 C 350.587 198.603,350.511 199.100,350.514 200.200 M386.101 200.200 C 386.105 201.080,386.187 201.393,386.283 200.895 C 386.379 200.398,386.375 199.678,386.275 199.295 C 386.175 198.913,386.096 199.320,386.101 200.200 M177.200 199.725 C 177.200 199.794,177.785 200.379,178.500 201.025 L 179.800 202.200 178.625 200.900 C 177.530 199.688,177.200 199.416,177.200 199.725 M198.436 202.157 C 198.181 202.463,197.434 202.938,196.774 203.211 C 196.114 203.484,195.653 203.787,195.750 203.883 C 196.007 204.141,198.173 202.956,198.778 202.226 C 199.064 201.882,199.208 201.600,199.098 201.600 C 198.988 201.600,198.690 201.851,198.436 202.157 M183.200 204.200 C 183.750 204.514,184.560 204.770,185.000 204.768 C 185.440 204.766,185.080 204.505,184.200 204.188 C 182.196 203.466,181.922 203.470,183.200 204.200 M385.246 204.467 C 385.221 204.834,385.096 205.464,384.970 205.867 C 384.752 206.562,384.763 206.563,385.197 205.887 C 385.448 205.496,385.573 204.866,385.473 204.487 C 385.311 203.868,385.288 203.866,385.246 204.467 M380.200 213.060 C 378.995 214.136,378.905 214.285,379.836 213.663 C 380.941 212.924,382.332 211.576,381.949 211.615 C 381.867 211.623,381.080 212.273,380.200 213.060 M273.312 212.295 C 274.364 212.377,275.984 212.376,276.912 212.292 C 277.840 212.208,276.980 212.141,275.000 212.142 C 273.020 212.143,272.260 212.212,273.312 212.295 M281.900 212.293 C 282.835 212.377,284.365 212.377,285.300 212.293 C 286.235 212.209,285.470 212.140,283.600 212.140 C 281.730 212.140,280.965 212.209,281.900 212.293 M267.300 213.076 C 267.685 213.176,268.315 213.176,268.700 213.076 C 269.085 212.975,268.770 212.893,268.000 212.893 C 267.230 212.893,266.915 212.975,267.300 213.076 M297.546 215.016 C 298.286 215.337,299.096 215.593,299.346 215.584 C 299.596 215.576,299.194 215.306,298.454 214.984 C 297.714 214.663,296.904 214.407,296.654 214.416 C 296.404 214.424,296.806 214.694,297.546 215.016 M358.800 214.979 C 358.800 215.089,359.340 215.459,360.000 215.800 C 360.660 216.141,361.200 216.331,361.200 216.221 C 361.200 216.111,360.660 215.741,360.000 215.400 C 359.340 215.059,358.800 214.869,358.800 214.979 M376.700 215.429 C 375.205 216.240,375.296 216.578,376.800 215.800 C 377.460 215.459,378.000 215.094,378.000 214.990 C 378.000 214.732,377.957 214.747,376.700 215.429 M257.700 215.834 C 256.985 216.146,256.400 216.490,256.400 216.598 C 256.400 216.776,259.576 215.651,259.967 215.335 C 260.395 214.988,258.862 215.326,257.700 215.834 M364.500 217.476 C 364.885 217.576,365.515 217.576,365.900 217.476 C 366.285 217.375,365.970 217.293,365.200 217.293 C 364.430 217.293,364.115 217.375,364.500 217.476 M370.900 217.476 C 371.285 217.576,371.915 217.576,372.300 217.476 C 372.685 217.375,372.370 217.293,371.600 217.293 C 370.830 217.293,370.515 217.375,370.900 217.476 M367.700 217.876 C 368.085 217.976,368.715 217.976,369.100 217.876 C 369.485 217.775,369.170 217.693,368.400 217.693 C 367.630 217.693,367.315 217.775,367.700 217.876 M250.200 219.600 C 249.540 220.037,249.180 220.392,249.400 220.388 C 249.801 220.382,251.976 218.823,251.600 218.812 C 251.490 218.808,250.860 219.163,250.200 219.600 M246.600 221.835 L 245.400 222.866 246.800 221.963 C 248.596 220.804,248.601 220.800,248.167 220.802 C 247.965 220.803,247.260 221.268,246.600 221.835 M311.600 221.746 C 311.600 221.856,312.140 222.330,312.800 222.800 C 313.460 223.270,314.000 223.564,314.000 223.454 C 314.000 223.344,313.460 222.870,312.800 222.400 C 312.140 221.930,311.600 221.636,311.600 221.746 M63.300 222.287 C 63.905 222.378,64.895 222.378,65.500 222.287 C 66.105 222.195,65.610 222.120,64.400 222.120 C 63.190 222.120,62.695 222.195,63.300 222.287 M58.700 223.227 C 57.875 223.663,57.200 224.109,57.200 224.220 C 57.200 224.330,57.784 224.119,58.497 223.750 C 59.211 223.381,60.246 222.941,60.797 222.774 C 61.597 222.531,61.638 222.465,61.000 222.452 C 60.560 222.443,59.525 222.792,58.700 223.227 M70.400 223.711 C 70.400 223.787,70.985 224.278,71.700 224.801 C 72.504 225.390,72.784 225.487,72.433 225.055 C 71.900 224.399,70.400 223.407,70.400 223.711 M239.234 227.846 C 237.009 229.961,234.807 232.256,234.339 232.946 C 233.871 233.636,234.330 233.264,235.358 232.119 C 236.387 230.975,238.705 228.680,240.510 227.019 C 242.314 225.359,243.675 224.000,243.535 224.000 C 243.394 224.000,241.458 225.731,239.234 227.846 M315.000 224.279 C 316.288 225.594,318.881 227.643,318.000 226.650 C 317.450 226.029,316.460 225.150,315.800 224.696 C 315.140 224.242,314.780 224.054,315.000 224.279 M52.808 229.184 C 52.364 230.055,52.015 231.090,52.034 231.484 C 52.058 231.966,52.168 231.872,52.374 231.197 C 52.541 230.646,52.981 229.611,53.350 228.897 C 53.719 228.184,53.930 227.600,53.818 227.600 C 53.707 227.600,53.253 228.313,52.808 229.184 M75.667 230.020 C 75.901 230.692,76.167 231.167,76.257 231.076 C 76.456 230.878,75.701 228.800,75.431 228.800 C 75.327 228.800,75.433 229.349,75.667 230.020 M323.368 232.400 C 325.464 234.843,325.885 235.226,324.904 233.800 C 324.450 233.140,323.571 232.150,322.950 231.600 C 322.201 230.936,322.341 231.204,323.368 232.400 M76.501 233.000 C 76.505 233.880,76.587 234.193,76.683 233.695 C 76.779 233.198,76.775 232.478,76.675 232.095 C 76.575 231.713,76.496 232.120,76.501 233.000 M51.720 234.800 C 51.720 236.010,51.795 236.505,51.887 235.900 C 51.978 235.295,51.978 234.305,51.887 233.700 C 51.795 233.095,51.720 233.590,51.720 234.800 M76.501 236.200 C 76.505 237.080,76.587 237.393,76.683 236.895 C 76.779 236.398,76.775 235.678,76.675 235.295 C 76.575 234.913,76.496 235.320,76.501 236.200 M232.000 236.000 C 231.530 236.660,231.236 237.200,231.346 237.200 C 231.456 237.200,231.930 236.660,232.400 236.000 C 232.870 235.340,233.164 234.800,233.054 234.800 C 232.944 234.800,232.470 235.340,232.000 236.000 M230.553 238.100 C 229.176 240.436,229.086 240.635,229.787 239.800 C 230.600 238.832,231.300 237.600,231.038 237.600 C 230.933 237.600,230.715 237.825,230.553 238.100 M75.217 240.358 C 74.614 241.814,71.750 244.687,69.941 245.652 C 69.204 246.045,68.780 246.373,69.000 246.382 C 70.707 246.447,76.778 240.245,75.883 239.350 C 75.787 239.253,75.487 239.707,75.217 240.358 M329.160 240.600 C 329.834 241.905,330.388 242.628,330.385 242.200 C 330.383 241.980,330.014 241.350,329.564 240.800 C 329.021 240.136,328.885 240.069,329.160 240.600 M53.564 241.533 C 53.780 241.936,54.271 242.521,54.655 242.833 C 55.087 243.184,54.990 242.904,54.401 242.100 C 53.351 240.665,52.957 240.398,53.564 241.533 M58.400 245.831 C 58.400 246.101,60.478 246.856,60.676 246.657 C 60.767 246.567,60.292 246.301,59.620 246.067 C 58.949 245.833,58.400 245.727,58.400 245.831 M61.905 247.083 C 62.402 247.179,63.122 247.175,63.505 247.075 C 63.887 246.975,63.480 246.896,62.600 246.901 C 61.720 246.905,61.407 246.987,61.905 247.083 M65.105 247.083 C 65.602 247.179,66.322 247.175,66.705 247.075 C 67.087 246.975,66.680 246.896,65.800 246.901 C 64.920 246.905,64.607 246.987,65.105 247.083 M360.300 248.295 C 361.455 248.376,363.345 248.376,364.500 248.295 C 365.655 248.214,364.710 248.148,362.400 248.148 C 360.090 248.148,359.145 248.214,360.300 248.295 M370.115 248.296 C 371.388 248.376,373.368 248.375,374.515 248.294 C 375.662 248.214,374.620 248.149,372.200 248.150 C 369.780 248.151,368.842 248.216,370.115 248.296 M333.216 248.654 C 333.207 248.904,333.463 249.714,333.784 250.454 C 334.106 251.194,334.376 251.596,334.384 251.346 C 334.393 251.096,334.137 250.286,333.816 249.546 C 333.494 248.806,333.224 248.404,333.216 248.654 M353.100 249.082 C 353.595 249.178,354.405 249.178,354.900 249.082 C 355.395 248.987,354.990 248.909,354.000 248.909 C 353.010 248.909,352.605 248.987,353.100 249.082 M379.500 249.082 C 379.995 249.178,380.805 249.178,381.300 249.082 C 381.795 248.987,381.390 248.909,380.400 248.909 C 379.410 248.909,379.005 248.987,379.500 249.082 M334.427 252.224 C 334.378 252.994,335.460 254.114,336.035 253.887 C 336.480 253.711,336.464 253.656,335.961 253.632 C 335.610 253.614,335.127 253.195,334.888 252.700 C 334.649 252.205,334.442 251.991,334.427 252.224 M394.746 252.616 C 395.486 252.937,396.296 253.193,396.546 253.184 C 396.796 253.176,396.394 252.906,395.654 252.584 C 394.914 252.263,394.104 252.007,393.854 252.016 C 393.604 252.024,394.006 252.294,394.746 252.616 M216.300 257.089 C 217.015 257.178,218.185 257.178,218.900 257.089 C 219.615 257.001,219.030 256.928,217.600 256.928 C 216.170 256.928,215.585 257.001,216.300 257.089 M210.705 257.883 C 211.202 257.979,211.922 257.975,212.305 257.875 C 212.687 257.775,212.280 257.696,211.400 257.701 C 210.520 257.705,210.207 257.787,210.705 257.883 M205.700 258.676 C 206.085 258.776,206.715 258.776,207.100 258.676 C 207.485 258.575,207.170 258.493,206.400 258.493 C 205.630 258.493,205.315 258.575,205.700 258.676 M174.000 270.436 C 173.336 270.979,173.269 271.115,173.800 270.840 C 175.105 270.166,175.828 269.612,175.400 269.615 C 175.180 269.617,174.550 269.986,174.000 270.436 M57.113 270.695 C 58.276 270.776,60.076 270.776,61.113 270.693 C 62.151 270.611,61.200 270.545,59.000 270.546 C 56.800 270.547,55.951 270.614,57.113 270.695 M65.913 270.695 C 67.076 270.776,68.876 270.776,69.913 270.693 C 70.951 270.611,70.000 270.545,67.800 270.546 C 65.600 270.547,64.751 270.614,65.913 270.695 M48.700 271.482 C 49.195 271.578,50.005 271.578,50.500 271.482 C 50.995 271.387,50.590 271.309,49.600 271.309 C 48.610 271.309,48.205 271.387,48.700 271.482 M76.305 271.483 C 76.802 271.579,77.522 271.575,77.905 271.475 C 78.287 271.375,77.880 271.296,77.000 271.301 C 76.120 271.305,75.807 271.387,76.305 271.483 M43.505 272.283 C 44.002 272.379,44.722 272.375,45.105 272.275 C 45.487 272.175,45.080 272.096,44.200 272.101 C 43.320 272.105,43.007 272.187,43.505 272.283 M81.905 272.283 C 82.402 272.379,83.122 272.375,83.505 272.275 C 83.887 272.175,83.480 272.096,82.600 272.101 C 81.720 272.105,81.407 272.187,81.905 272.283 M170.000 272.836 C 169.336 273.379,169.269 273.515,169.800 273.240 C 171.105 272.566,171.828 272.012,171.400 272.015 C 171.180 272.017,170.550 272.386,170.000 272.836 M99.146 276.616 C 99.886 276.937,100.696 277.193,100.946 277.184 C 101.196 277.176,100.794 276.906,100.054 276.584 C 99.314 276.263,98.504 276.007,98.254 276.016 C 98.004 276.024,98.406 276.294,99.146 276.616 M163.800 277.035 L 162.600 278.066 163.900 277.206 C 164.615 276.733,165.200 276.268,165.200 276.173 C 165.200 275.873,165.031 275.978,163.800 277.035 M22.200 278.214 C 20.585 278.954,21.551 278.955,23.254 278.216 C 23.994 277.894,24.330 277.639,24.000 277.648 C 23.670 277.657,22.860 277.912,22.200 278.214 M107.200 279.800 C 107.750 280.114,108.380 280.372,108.600 280.372 C 108.820 280.372,108.550 280.114,108.000 279.800 C 107.450 279.486,106.820 279.228,106.600 279.228 C 106.380 279.228,106.650 279.486,107.200 279.800 M156.200 283.038 L 153.400 285.668 156.300 283.176 C 158.875 280.963,159.452 280.391,159.100 280.403 C 159.045 280.405,157.740 281.591,156.200 283.038 M149.588 289.100 L 147.000 291.800 149.700 289.212 C 152.208 286.807,152.583 286.400,152.288 286.400 C 152.227 286.400,151.012 287.615,149.588 289.100 M4.100 287.646 C 2.737 288.519,2.295 289.106,3.500 288.443 C 4.418 287.939,5.856 286.827,5.600 286.819 C 5.490 286.816,4.815 287.188,4.100 287.646 M122.400 287.724 C 122.400 287.817,123.165 288.398,124.100 289.015 C 125.035 289.632,125.589 289.880,125.331 289.568 C 124.834 288.967,122.400 287.436,122.400 287.724 M127.600 291.325 C 127.600 291.424,128.261 292.009,129.068 292.625 C 129.876 293.241,130.411 293.541,130.256 293.291 C 129.940 292.779,127.600 291.047,127.600 291.325 M144.800 294.200 C 143.828 295.190,143.123 296.000,143.233 296.000 C 143.343 296.000,144.228 295.190,145.200 294.200 C 146.172 293.210,146.877 292.400,146.767 292.400 C 146.657 292.400,145.772 293.210,144.800 294.200 M130.800 293.706 C 130.800 293.794,131.565 294.474,132.500 295.217 C 133.435 295.960,133.946 296.252,133.636 295.865 C 133.051 295.137,130.800 293.423,130.800 293.706 M136.200 298.345 C 137.080 299.290,138.160 300.253,138.600 300.486 C 139.040 300.718,139.310 300.827,139.200 300.727 C 135.303 297.191,134.620 296.648,136.200 298.345 M140.575 299.468 C 139.959 300.276,139.659 300.811,139.909 300.656 C 140.421 300.340,142.153 298.000,141.875 298.000 C 141.776 298.000,141.191 298.661,140.575 299.468 " stroke="none" fill="#6cb494" fill-rule="evenodd"></path></g></svg>