<?xml version="1.0" encoding="UTF-8"?>
<svg xmlns="http://www.w3.org/2000/svg" xmlns:xlink="http://www.w3.org/1999/xlink" width="3000pt" height="1000pt" viewBox="0 0 3000 1000" version="1.1">
<g id="surface1">
<path style=" stroke:none;fill-rule:nonzero;fill:rgb(23.921569%,60%,43.921569%);fill-opacity:1;" d="M 0 500 L 35.625 433.4375 C 71.457031 365.625 143.75 234.375 214.582031 283.4375 C 285.625 334.375 356.25 565.625 429.167969 650 C 500 734.375 570.832031 665.625 643.75 616.5625 C 714.375 565.625 785.417969 534.375 856.25 433.4375 C 928.542969 334.375 1000 165.625 1070.832031 216.5625 C 1142.917969 265.625 1214.582031 534.375 1285.417969 550 C 1357.082031 565.625 1429.167969 334.375 1500 316.5625 C 1571.457031 300 1643.75 500 1714.582031 500 C 1785.625 500 1856.25 300 1929.167969 316.5625 C 2000 334.375 2070.832031 565.625 2143.75 666.5625 C 2214.375 765.625 2285.417969 734.375 2356.25 616.5625 C 2428.542969 500 2500 300 2570.832031 233.4375 C 2642.917969 165.625 2714.582031 234.375 2785.417969 233.4375 C 2857.082031 234.375 2929.167969 165.625 2964.582031 133.4375 L 3000 100 L 3000 0 L 2964.375 0 C 2928.542969 0 2856.25 0 2785.417969 0 C 2714.375 0 2643.75 0 2570.832031 0 C 2500 0 2429.167969 0 2356.25 0 C 2285.625 0 2214.582031 0 2143.75 0 C 2071.457031 0 2000 0 1929.167969 0 C 1857.082031 0 1785.417969 0 1714.582031 0 C 1642.917969 0 1570.832031 0 1500 0 C 1428.542969 0 1356.25 0 1285.417969 0 C 1214.375 0 1143.75 0 1070.832031 0 C 1000 0 929.167969 0 856.25 0 C 785.625 0 714.582031 0 643.75 0 C 571.457031 0 500 0 429.167969 0 C 357.082031 0 285.417969 0 214.582031 0 C 142.917969 0 70.832031 0 35.417969 0 L 0 0 Z M 0 500 "/>
</g>
</svg>
